<svg width="400" height="400" xmlns="http://www.w3.org/2000/svg">
  <defs>
    <linearGradient id="bg" x1="0%" y1="0%" x2="100%" y2="100%">
      <stop offset="0%" style="stop-color:#1a1a2e;stop-opacity:1" />
      <stop offset="100%" style="stop-color:#16213e;stop-opacity:1" />
    </linearGradient>
    <linearGradient id="accent" x1="0%" y1="0%" x2="100%" y2="0%">
      <stop offset="0%" style="stop-color:#00d4ff;stop-opacity:1" />
      <stop offset="100%" style="stop-color:#0066ff;stop-opacity:1" />
    </linearGradient>
  </defs>
  <rect width="400" height="400" fill="url(#bg)"/>
  <pattern id="grid" width="20" height="20" patternUnits="userSpaceOnUse">
    <path d="M 20 0 L 0 0 0 20" fill="none" stroke="#ffffff" stroke-width="0.5" opacity="0.05"/>
  </pattern>
  <rect width="400" height="400" fill="url(#grid)"/>
  <g transform="translate(150, 120)">
    <rect x="0" y="0" width="100" height="100" rx="10" fill="#0a4f6e" opacity="0.5"/>
    <path d="M50 15 L85 35 L85 75 L50 95 L15 75 L15 35 Z" fill="none" stroke="url(#accent)" stroke-width="3"/>
    <circle cx="50" cy="55" r="20" fill="none" stroke="#00d4ff" stroke-width="2"/>
    <line x1="50" y1="35" x2="50" y2="75" stroke="#00d4ff" stroke-width="2"/>
    <line x1="30" y1="55" x2="70" y2="55" stroke="#00d4ff" stroke-width="2"/>
  </g>
  <text x="200" y="280" font-family="Arial, sans-serif" font-size="18" font-weight="bold" fill="#fff" text-anchor="middle">GENUINE PARTS</text>
  <text x="200" y="310" font-family="Arial, sans-serif" font-size="12" fill="#666" text-anchor="middle">EmersonEIMS Kenya</text>
  <rect x="50" y="380" width="300" height="3" rx="1.5" fill="url(#accent)" opacity="0.5"/>
</svg>
